<?xml version="1.0" encoding="UTF-8" standalone="no"?>
<!-- Created with Inkscape (http://www.inkscape.org/) -->

<svg
   width="12mm"
   height="8mm"
   viewBox="0 0 12 8"
   version="1.1"
   id="svg5"
   inkscape:version="1.1 (c68e22c387, 2021-05-23)"
   sodipodi:docname="arm-mech2d-background.svg"
   xmlns:inkscape="http://www.inkscape.org/namespaces/inkscape"
   xmlns:sodipodi="http://sodipodi.sourceforge.net/DTD/sodipodi-0.dtd"
   xmlns="http://www.w3.org/2000/svg"
   xmlns:svg="http://www.w3.org/2000/svg">
  <sodipodi:namedview
     id="namedview7"
     pagecolor="#ffffff"
     bordercolor="#666666"
     borderopacity="1.0"
     inkscape:pageshadow="2"
     inkscape:pageopacity="0.0"
     inkscape:pagecheckerboard="0"
     inkscape:document-units="mm"
     showgrid="true"
     inkscape:zoom="64"
     inkscape:cx="20.257813"
     inkscape:cy="27.695313"
     inkscape:window-width="1920"
     inkscape:window-height="1001"
     inkscape:window-x="-9"
     inkscape:window-y="-9"
     inkscape:window-maximized="1"
     inkscape:current-layer="layer1">
    <inkscape:grid
       type="xygrid"
       id="grid824"
       empspacing="12"
       spacingx="0.041664999"
       spacingy="0.041669999"
       units="mm" />
  </sodipodi:namedview>
  <defs
     id="defs2">
    <inkscape:path-effect
       effect="mirror_symmetry"
       start_point="5.9997599,1.5001199"
       end_point="5.9997599,8.0006402"
       center_point="5.9997599,4.75038"
       id="path-effect1021"
       is_visible="true"
       lpeversion="1.1"
       mode="free"
       discard_orig_path="false"
       fuse_paths="false"
       oposite_fuse="false"
       split_items="false"
       split_open="false" />
  </defs>
  <g
     inkscape:label="Layer 1"
     inkscape:groupmode="layer"
     id="layer1">
    <g
       id="g979"
       inkscape:label="g979"
       inkscape:path-effect="#path-effect1021">
      <path
         style="fill:#aa0000;stroke-width:0.264999;stroke-linecap:round;stroke-linejoin:round"
         id="rect961"
         width="5.0414648"
         height="6.5005198"
         x="0.95829499"
         y="1.5001199"
         ry="5.3733153e-08"
         d="M 0.95829504,1.5001199 H 5.9997597 l 10e-8,10e-8 v 6.5005196 l -10e-8,1e-7 H 0.95829504 l -5e-8,-1e-7 V 1.50012 Z m 10.08292996,0 H 5.9997601 l -10e-8,10e-8 v 6.5005196 l 10e-8,1e-7 h 5.0414649 l 0,-1e-7 V 1.50012 Z"
         sodipodi:type="rect" />
      <path
         style="fill:#808080;stroke-width:0.264999;stroke-linecap:round;stroke-linejoin:round"
         id="rect871"
         width="4.3331599"
         height="0.41665006"
         x="0.37498495"
         y="7.5839901"
         ry="7.0990723e-08"
         d="M 0.37498502,7.5839901 H 4.7081448 l 10e-8,10e-8 v 0.4166499 l -10e-8,10e-8 H 0.37498502 l -7e-8,-10e-8 V 7.5839902 Z m 11.24954998,0 h -4.33316 l -1e-7,10e-8 v 0.4166499 l 1e-7,10e-8 h 4.33316 l 0,-10e-8 V 7.5839902 Z"
         sodipodi:type="rect" />
      <path
         style="fill:#cccccc;stroke-width:0.264999;stroke-linecap:round;stroke-linejoin:round"
         id="rect1053"
         width="1.7082648"
         height="3.0002401"
         x="0.37498498"
         y="5.0004001"
         ry="7.0990616e-08"
         d="M 0.37498505,5.0004001 H 2.0832497 l 10e-8,0 v 3.00024 l -10e-8,10e-8 H 0.37498505 l -7e-8,-10e-8 v -3.00024 z m 11.24954995,0 H 9.9162701 l -10e-8,0 v 3.00024 l 10e-8,10e-8 h 1.7082649 l 0,-10e-8 v -3.00024 z"
         sodipodi:type="rect" />
      <path
         style="fill:#cccccc;stroke-width:0.264999;stroke-linecap:round;stroke-linejoin:round"
         id="rect1055"
         width="1.458275"
         height="1.95849"
         x="2.08325"
         y="6.04215"
         ry="7.0990616e-08"
         d="m 2.0832501,6.04215 h 1.4582748 l 10e-8,10e-8 V 8.00064 l -10e-8,0 H 2.0832501 l -10e-8,0 V 6.0421501 Z m 7.8330196,0 H 8.4579949 l -10e-8,10e-8 V 8.00064 l 10e-8,0 h 1.4582748 l 10e-8,0 V 6.0421501 Z"
         sodipodi:type="rect" />
      <path
         style="fill:#0000ff;stroke-width:0.264999;stroke-linecap:round;stroke-linejoin:round"
         id="rect895"
         width="1.2916152"
         height="0.58330953"
         x="4.7081447"
         y="7.4173303"
         ry="0.16665991"
         d="M 4.8748046,7.4173303 H 5.8331 c 0.09233,0 0.1666599,0.07433 0.1666599,0.1666599 v 0.2499897 c 0,0.09233 -0.07433,0.1666599 -0.1666599,0.1666599 H 4.8748046 c -0.09233,0 -0.1666599,-0.07433 -0.1666599,-0.1666599 V 7.5839902 c 0,-0.09233 0.07433,-0.1666599 0.1666599,-0.1666599 z m 2.2499106,0 H 6.1664198 c -0.09233,0 -0.1666599,0.07433 -0.1666599,0.1666599 v 0.2499897 c 0,0.09233 0.07433,0.1666599 0.1666599,0.1666599 h 0.9582954 c 0.09233,0 0.1666599,-0.07433 0.1666599,-0.1666599 V 7.5839902 c 0,-0.09233 -0.07433,-0.1666599 -0.1666599,-0.1666599 z"
         sodipodi:type="rect" />
      <path
         style="fill:#cccccc;stroke-width:0.264999;stroke-linecap:round;stroke-linejoin:round"
         id="rect1043"
         width="1.0416248"
         height="4.50036"
         x="4.9581347"
         y="3.5002799"
         ry="7.0990616e-08"
         d="m 4.9581347,3.5002799 h 1.0416247 l 0,10e-8 v 4.5003598 l 0,10e-8 H 4.9581347 l 0,-10e-8 V 3.50028 Z m 2.0832504,0 H 5.9997604 l 0,10e-8 v 4.5003598 l 0,10e-8 h 1.0416247 l 0,-10e-8 V 3.50028 Z"
         sodipodi:type="rect"
         inkscape:export-filename="C:\Users\jashu\git\Robot-2023\resources\arm-mech2d-background.png"
         inkscape:export-xdpi="952.5"
         inkscape:export-ydpi="952.5" />
      <path
         style="fill:#000000;stroke-width:0.264999;stroke-linecap:round;stroke-linejoin:round"
         id="rect1079"
         width="0.083330147"
         height="3.0002401"
         x="2.7915549"
         y="5.0004001"
         ry="7.0990616e-08"
         d="m 2.791555,5.0004001 h 0.08333 l 1e-7,0 v 3.00024 l -1e-7,10e-8 h -0.08333 l -10e-8,-10e-8 v -3.00024 z m 6.4164098,0 h -0.08333 l -1e-7,0 v 3.00024 l 1e-7,10e-8 h 0.08333 l 1e-7,-10e-8 v -3.00024 z"
         sodipodi:type="rect" />
      <path
         style="fill:#000000;stroke-width:0.264999;stroke-linecap:round;stroke-linejoin:round"
         id="rect959"
         width="0.083329991"
         height="4.00032"
         x="1.3749449"
         y="4.00032"
         ry="0.020832499"
         d="m 1.3957774,4.00032 h 0.041665 c 0.011541,0 0.020833,0.00929 0.020833,0.020833 v 3.9586549 c 0,0.011541 -0.00929,0.020832 -0.020833,0.020832 h -0.041665 c -0.011541,0 -0.020833,-0.00929 -0.020833,-0.020832 V 4.0211525 c 0,-0.011541 0.00929,-0.020833 0.020833,-0.020833 z m 9.2079646,0 h -0.04167 c -0.01154,0 -0.02083,0.00929 -0.02083,0.020833 v 3.9586549 c 0,0.011541 0.0093,0.020832 0.02083,0.020832 h 0.04167 c 0.01154,0 0.02083,-0.00929 0.02083,-0.020832 V 4.0211525 c 0,-0.011541 -0.0093,-0.020833 -0.02083,-0.020833 z"
         sodipodi:type="rect" />
    </g>
  </g>
</svg>
